<mxfile host="app.diagrams.net" agent="Mozilla/5.0 (Windows NT 10.0; Win64; x64; rv:128.0) Gecko/20100101 Firefox/128.0" version="24.7.7">
  <diagram name="Page-1" id="bKiJTdQodb1KxArDgRjg">
    <mxGraphModel dx="1434" dy="774" grid="1" gridSize="10" guides="1" tooltips="1" connect="1" arrows="1" fold="1" page="1" pageScale="1" pageWidth="1169" pageHeight="827" math="0" shadow="0">
      <root>
        <mxCell id="0" />
        <mxCell id="1" parent="0" />
        <mxCell id="HvtVc9Fg8V6ejwQoCT5m-7" value="un commerçant" style="shape=umlActor;verticalLabelPosition=bottom;verticalAlign=top;html=1;outlineConnect=0;" vertex="1" parent="1">
          <mxGeometry x="80" y="354" width="30" height="60" as="geometry" />
        </mxCell>
        <mxCell id="HvtVc9Fg8V6ejwQoCT5m-10" value="&lt;div&gt;editer fiche fournisseur&lt;/div&gt;&lt;div&gt;&lt;br&gt;&lt;/div&gt;" style="ellipse;whiteSpace=wrap;html=1;" vertex="1" parent="1">
          <mxGeometry x="240" y="160" width="120" height="80" as="geometry" />
        </mxCell>
        <mxCell id="HvtVc9Fg8V6ejwQoCT5m-11" value="ajouter un article" style="ellipse;whiteSpace=wrap;html=1;" vertex="1" parent="1">
          <mxGeometry x="243" y="337" width="120" height="80" as="geometry" />
        </mxCell>
        <mxCell id="HvtVc9Fg8V6ejwQoCT5m-13" value="imprimer inventaire" style="ellipse;whiteSpace=wrap;html=1;" vertex="1" parent="1">
          <mxGeometry x="440" y="513" width="120" height="80" as="geometry" />
        </mxCell>
        <mxCell id="HvtVc9Fg8V6ejwQoCT5m-15" value="editer inventaire" style="ellipse;whiteSpace=wrap;html=1;" vertex="1" parent="1">
          <mxGeometry x="243" y="517" width="120" height="80" as="geometry" />
        </mxCell>
        <mxCell id="HvtVc9Fg8V6ejwQoCT5m-16" value="effacer un article" style="ellipse;whiteSpace=wrap;html=1;" vertex="1" parent="1">
          <mxGeometry x="450" y="400" width="120" height="80" as="geometry" />
        </mxCell>
        <mxCell id="HvtVc9Fg8V6ejwQoCT5m-17" value="editer fiche article" style="ellipse;whiteSpace=wrap;html=1;" vertex="1" parent="1">
          <mxGeometry x="241" y="425" width="120" height="80" as="geometry" />
        </mxCell>
        <mxCell id="HvtVc9Fg8V6ejwQoCT5m-21" value="" style="endArrow=classic;html=1;rounded=0;" edge="1" parent="1">
          <mxGeometry width="50" height="50" relative="1" as="geometry">
            <mxPoint x="433.71" y="556" as="sourcePoint" />
            <mxPoint x="362.9993218813452" y="556" as="targetPoint" />
            <Array as="points" />
          </mxGeometry>
        </mxCell>
        <mxCell id="HvtVc9Fg8V6ejwQoCT5m-22" value="" style="endArrow=none;html=1;rounded=0;exitX=0.083;exitY=0.175;exitDx=0;exitDy=0;exitPerimeter=0;" edge="1" parent="1">
          <mxGeometry width="50" height="50" relative="1" as="geometry">
            <mxPoint x="249.96000000000004" y="437.4000000000001" as="sourcePoint" />
            <mxPoint x="265.2285728183997" y="229.9982129827503" as="targetPoint" />
            <Array as="points">
              <mxPoint x="140" y="347.4" />
            </Array>
          </mxGeometry>
        </mxCell>
        <mxCell id="HvtVc9Fg8V6ejwQoCT5m-23" value="" style="endArrow=none;html=1;rounded=0;" edge="1" parent="1">
          <mxGeometry width="50" height="50" relative="1" as="geometry">
            <mxPoint x="150" y="340" as="sourcePoint" />
            <mxPoint x="240" y="300" as="targetPoint" />
          </mxGeometry>
        </mxCell>
        <mxCell id="HvtVc9Fg8V6ejwQoCT5m-24" value="" style="endArrow=none;html=1;rounded=0;" edge="1" parent="1">
          <mxGeometry width="50" height="50" relative="1" as="geometry">
            <mxPoint x="150" y="350" as="sourcePoint" />
            <mxPoint x="250" y="360" as="targetPoint" />
          </mxGeometry>
        </mxCell>
        <mxCell id="HvtVc9Fg8V6ejwQoCT5m-25" value="" style="endArrow=none;html=1;rounded=0;" edge="1" parent="1">
          <mxGeometry width="50" height="50" relative="1" as="geometry">
            <mxPoint x="240" y="560" as="sourcePoint" />
            <mxPoint x="150" y="450" as="targetPoint" />
          </mxGeometry>
        </mxCell>
        <mxCell id="HvtVc9Fg8V6ejwQoCT5m-27" value="créer fiche fournisseur" style="ellipse;whiteSpace=wrap;html=1;" vertex="1" parent="1">
          <mxGeometry x="240" y="257" width="120" height="80" as="geometry" />
        </mxCell>
        <mxCell id="HvtVc9Fg8V6ejwQoCT5m-29" value="" style="endArrow=classic;html=1;rounded=0;" edge="1" parent="1">
          <mxGeometry width="50" height="50" relative="1" as="geometry">
            <mxPoint x="440" y="440" as="sourcePoint" />
            <mxPoint x="370" y="440" as="targetPoint" />
          </mxGeometry>
        </mxCell>
      </root>
    </mxGraphModel>
  </diagram>
</mxfile>
